<svg width="52" height="52" viewBox="0 0 52 52" fill="none" xmlns="http://www.w3.org/2000/svg">
<path fill-rule="evenodd" clip-rule="evenodd" d="M29.4166 28.6112H36.9307L36.8898 29.5153C36.8063 31.3628 36.3143 33.0223 35.3964 34.469C34.4783 35.916 33.2079 37.0364 31.6107 37.8318L31.6083 37.833C30.012 38.6217 28.1572 39 26.0696 39C24.3618 39 22.8047 38.7078 21.4133 38.1036L21.4109 38.1026C20.0368 37.5007 18.8606 36.6306 17.8919 35.4954L17.8884 35.4913C16.9329 34.3574 16.2135 32.9971 15.7197 31.4276L15.7179 31.4219C15.235 29.8496 15 28.1004 15 26.1837V24.8501C15 22.9297 15.247 21.1765 15.7547 19.6005L15.7559 19.5968C16.2722 18.0183 17.0082 16.6541 17.9747 15.5215C18.9522 14.3779 20.1271 13.5013 21.4912 12.8985C22.8578 12.2946 24.3606 12 25.9868 12C28.1833 12 30.0981 12.4003 31.6953 13.2451C33.2711 14.0786 34.5115 15.2373 35.3923 16.7201C36.2618 18.1726 36.767 19.817 36.9207 21.636L37 22.5745H29.4497L29.4295 21.7312C29.4093 20.8893 29.269 20.2458 29.0468 19.7668L29.0442 19.7614C28.8392 19.3112 28.5252 18.9814 28.0758 18.7524C27.6183 18.5193 26.9409 18.371 25.9868 18.371C25.3731 18.371 24.8841 18.4862 24.4941 18.6849C24.1241 18.8735 23.7941 19.1804 23.5118 19.6478C23.2288 20.1164 22.9921 20.7672 22.8279 21.6333C22.6747 22.4887 22.594 23.5464 22.594 24.8163V26.1837C22.594 27.4579 22.6697 28.5205 22.8138 29.3807C22.957 30.2352 23.1788 30.8792 23.4518 31.3457C23.7187 31.802 24.0441 32.1133 24.4249 32.3135C24.8326 32.5107 25.3704 32.629 26.0696 32.629C26.8661 32.629 27.4824 32.5021 27.9493 32.2871C28.3989 32.0692 28.7351 31.753 28.9777 31.3257C29.2197 30.8885 29.3766 30.2805 29.3964 29.4545L29.4166 28.6112Z" fill="black"/>
<circle cx="26" cy="26" r="23.5814" stroke="black" stroke-width="4.83721"/>
</svg>
