<svg width="1006" height="3278" viewBox="0 0 1006 3278" fill="none" xmlns="http://www.w3.org/2000/svg">
<path fill-rule="evenodd" clip-rule="evenodd" d="M141.073 634C141.74 664 144.373 735.8 149.573 783C156.073 842 173.073 972.5 229.573 1037.5C286.073 1102.5 405.573 1187.5 502.573 1187.5C599.573 1187.5 719.073 1102.5 775.573 1037.5C832.073 972.5 849.073 842 855.573 783C860.773 735.8 863.407 664 864.073 634V412.5C864.073 320.9 623.073 309 502.573 314.5C382.073 309 141.073 320.9 141.073 412.5V634Z" fill="#F7B992"/>
<path d="M339.073 1177.5C368.673 1171.1 450.073 1161 503.073 1161C585.573 1161 607.573 1169 667.573 1177.5C714.855 1184.2 625.573 1339.5 503.073 1339.5C380.573 1339.5 302.073 1185.5 339.073 1177.5Z" fill="#F7B992"/>
<path fill-rule="evenodd" clip-rule="evenodd" d="M154.076 735C171.743 813.333 234.77 977.8 333.57 975C335.579 972.697 337.511 970.294 339.49 967.831C357.686 945.194 379.886 917.574 502.572 917.5C502.655 917.5 502.738 917.5 502.821 917.5C502.904 917.5 502.987 917.5 503.07 917.5C625.757 917.574 647.957 945.194 666.152 967.831C668.132 970.294 670.064 972.697 672.072 975C770.872 977.8 833.9 813.333 851.567 735C869.541 1066.04 622.26 1171.21 503.07 1184.45V1184.5C502.987 1184.49 502.904 1184.48 502.821 1184.47C502.738 1184.48 502.655 1184.49 502.572 1184.5V1184.45C383.383 1171.21 136.101 1066.04 154.076 735Z" fill="#CB9878"/>
<path d="M638.073 1110.5C643.073 1126 633.673 1146 608.073 1152C614.74 1148 634.746 1134.5 638.073 1110.5Z" fill="#6B1F19"/>
<path d="M371.866 1110.5C366.866 1126 376.266 1146 401.866 1152C395.2 1148 375.194 1134.5 371.866 1110.5Z" fill="#6B1F19"/>
<path d="M506.073 1145.5C514.073 1141.1 513.073 1127.77 509.573 1113.5C507.979 1107 513.451 1108.9 519.073 1117C536.073 1141.5 520.073 1150 513.073 1154C506.073 1158 496.073 1151 506.073 1145.5Z" fill="#B26550"/>
<path opacity="0.8" fill-rule="evenodd" clip-rule="evenodd" d="M521.573 959.162C548.073 957.07 578.572 975.662 597.572 992.162C546.284 1044.29 523.273 1040.93 509.52 1038.53C507.857 1038.63 506.06 1038.95 504.066 1039.29C490.364 1041.69 467.413 1045.69 415.573 993C434.573 976.5 465.072 957.908 491.572 960C495.169 960.284 500.621 961.953 505.926 964.51C511.115 961.444 517.205 959.507 521.573 959.162Z" fill="#E1986B"/>
<path d="M602.633 1000.76C606.919 1001.83 611.263 999.226 612.334 994.94C613.406 990.654 610.8 986.31 606.513 985.239L602.633 1000.76ZM516.361 990.047L514.507 982.265L516.361 990.047ZM411.681 1000.56C417.116 998.689 430.567 996.391 446.882 995.447C463.042 994.511 480.891 994.972 495.03 998.057L498.441 982.425C482.284 978.899 462.804 978.498 445.957 979.474C429.265 980.44 414.033 982.827 406.465 985.437L411.681 1000.56ZM518.215 997.829C532.866 994.338 550.372 994.122 566.301 995.323C582.165 996.518 595.868 999.07 602.633 1000.76L606.513 985.239C598.833 983.319 584.233 980.629 567.504 979.368C550.84 978.112 531.462 978.225 514.507 982.265L518.215 997.829ZM495.03 998.057C502.665 999.723 510.624 999.638 518.215 997.829L514.507 982.265C509.243 983.519 503.717 983.576 498.441 982.425L495.03 998.057Z" fill="black"/>
<path d="M576.58 873C564.08 887 535.574 884 537.074 884C537.074 879.667 542.18 869.8 554.58 867C566.98 864.2 574.414 869.833 576.58 873Z" fill="#C68569"/>
<path opacity="0.8" d="M576.58 873C564.08 887 535.574 884 537.074 884C537.074 879.667 542.18 869.8 554.58 867C566.98 864.2 574.414 869.833 576.58 873Z" fill="#C68569"/>
<path opacity="0.8" d="M431.573 873C444.073 887 472.579 884 471.08 884C471.08 879.667 465.973 869.8 453.573 867C441.173 864.2 433.74 869.833 431.573 873Z" fill="#C68569"/>
<path d="M418.073 463.846C384.073 457.046 337.74 452.679 320.573 451.346C349.573 445.846 400.073 451.346 413.073 454.346C426.073 457.346 504.573 465.846 563.073 456.846C615.606 448.764 661.74 447.513 677.573 451.346C653.073 449.346 623.073 456.346 587.073 463.846C541.073 473.429 473.573 474.946 418.073 463.846Z" fill="#D78266"/>
<path d="M967.573 700.5C960.773 815.3 886.073 866 849.573 877C849.573 837 874.573 689 857.573 591L879.073 587.5C911.407 577.333 974.373 585.7 967.573 700.5Z" fill="black"/>
<path d="M950.073 674.5C950.073 614.9 918.74 600.666 904.573 604.5C885.773 604.5 874.407 627.833 871.073 639.5C881.873 709.5 866.573 811.666 857.573 850.5C921.573 824.5 950.073 749 950.073 674.5Z" fill="#F7B992"/>
<path d="M928.071 684.5C931.271 650.9 910.569 644.5 897.571 644.5C884.573 644.5 870.738 686.333 866.571 700.5L861.073 790.5C858.406 799.167 865.072 815 865.072 815C908.572 796 924.071 726.5 928.071 684.5Z" fill="#D78266"/>
<path d="M927.073 636.503C910.673 644.503 900.573 659.17 897.573 665.503C895.572 674.503 899.573 672.003 902.073 678.003C918.073 716.003 907.073 740.837 899.573 748.503C908.573 731.003 902.573 696.503 897.573 687.503C892.573 678.503 878.073 688.503 897.573 654.503C913.173 627.303 923.74 631.17 927.073 636.503Z" fill="#6E261E"/>
<path d="M901.573 778.5C892.073 801.5 870.907 818.5 861.573 819.5V814C877.173 809.6 894.907 787.667 901.573 778.5Z" fill="#6E261E"/>
<path d="M38.082 700.5C44.882 815.3 119.582 866 156.082 877C156.082 837 131.082 689 148.082 591L126.582 587.5C94.2487 577.333 31.282 585.7 38.082 700.5Z" fill="black"/>
<path d="M55.582 674.5C55.582 614.9 86.9154 600.666 101.082 604.5C119.882 604.5 131.249 627.833 134.582 639.5C123.782 709.5 139.082 811.666 148.082 850.5C84.082 824.5 55.582 749 55.582 674.5Z" fill="#F7B992"/>
<path d="M77.584 684.5C74.384 650.9 95.0859 644.5 108.084 644.5C121.082 644.5 134.918 686.333 139.084 700.5L144.582 790.5C147.249 799.167 140.583 815 140.583 815C97.0834 796 81.584 726.5 77.584 684.5Z" fill="#D78266"/>
<path d="M78.5824 636.503C94.9824 644.503 105.082 659.17 108.082 665.503C110.083 674.503 106.082 672.003 103.582 678.003C87.582 716.003 98.582 740.837 106.082 748.503C97.082 731.003 103.082 696.503 108.082 687.503C113.082 678.503 127.582 688.503 108.082 654.503C92.4824 627.303 81.9158 631.17 78.5824 636.503Z" fill="#6E261E"/>
<path d="M104.082 778.5C113.582 801.5 134.749 818.5 144.082 819.5V814C128.482 809.6 110.749 787.667 104.082 778.5Z" fill="#6E261E"/>
<path d="M501.573 876.5C480.773 876.1 466.573 870 462.073 867C468.74 878.667 486.573 902 504.573 902C522.573 902 540.073 878.667 546.573 867C540.24 870.333 522.373 876.9 501.573 876.5Z" fill="#CE6F58"/>
<path d="M592.073 838.5C590.873 833.3 577.573 819.706 573.573 819C570.74 818.5 566.342 819 571.573 823C580.073 829.5 587.573 841.5 585.573 854.5C583.423 868.478 582.573 868 566.073 861.5C555.175 857.207 535.073 872 527.573 885.5C521.573 896.3 508.24 899.667 503.573 899.5V904.5C526.073 904.5 529.073 893 538.073 883C551.123 868.5 558.573 868 564.573 868.5C570.573 869 579.073 879 587.573 873C596.073 867 593.573 845 592.073 838.5Z" fill="#651E18"/>
<path d="M415.112 838.5C416.312 833.3 429.612 819.706 433.612 819C436.446 818.5 440.843 819 435.612 823C427.112 829.5 419.612 841.5 421.612 854.5C423.763 868.478 424.612 868 441.112 861.5C452.011 857.207 472.112 872 479.612 885.5C485.612 896.3 498.946 899.667 503.612 899.5V904.5C481.112 904.5 478.112 893 469.112 883C456.062 868.5 448.612 868 442.612 868.5C436.612 869 428.112 879 419.612 873C411.112 867 413.612 845 415.112 838.5Z" fill="#651E18"/>
<ellipse cx="408.573" cy="991.5" rx="6" ry="10.5" transform="rotate(-7.91897 408.573 991.5)" fill="black"/>
<ellipse cx="6" cy="10.5" rx="6" ry="10.5" transform="matrix(-0.990464 -0.137772 -0.137772 0.990464 614.352 981.927)" fill="black"/>
<path d="M670.169 725.453C615.949 726.752 582.875 702.718 572.573 689.726C580.706 657.247 603.479 647.503 673.965 647.503C749.5 647.503 771.56 651.834 784.573 660.495C766.138 687.019 735.775 723.881 670.169 725.453Z" fill="white"/>
<path d="M722.573 659.504C722.573 685.461 701.531 706.504 675.573 706.504C649.616 706.504 628.573 685.461 628.573 659.504C628.573 633.546 647.616 643.004 673.573 643.004C699.531 643.004 722.573 633.546 722.573 659.504Z" fill="#5C351D"/>
<path d="M698.573 659.503C698.573 672.206 688.276 682.503 675.573 682.503C662.871 682.503 652.573 672.206 652.573 659.503C652.573 646.801 662.871 642.503 675.573 642.503C688.276 642.503 698.573 646.801 698.573 659.503Z" fill="black"/>
<path fill-rule="evenodd" clip-rule="evenodd" d="M793.073 650.503C793.073 669.003 735.673 738.503 672.073 734.503C592.573 729.503 565.573 695.003 565.573 675.503C570.144 664.263 590.073 644.503 622.573 636.503C655.073 628.503 751.573 630.003 793.073 650.503ZM581.073 689.503C590.573 701.503 621.073 723.703 671.073 722.503C731.573 721.051 759.573 687.003 776.573 662.503C764.573 654.503 744.23 650.503 674.573 650.503C609.573 650.503 588.573 659.503 581.073 689.503Z" fill="black"/>
<path d="M719.574 614.5C749.574 615.7 773.407 633.333 781.574 642C778.74 644.333 768.274 645.2 749.074 630C725.074 611 659.574 621.5 625.574 619.5C592.963 617.582 578.074 632 576.574 630C575.074 628 596.074 616 602.074 616C627.574 616 682.074 613 719.574 614.5Z" fill="#C96954"/>
<path d="M334.477 725.453C388.697 726.752 421.771 702.718 432.073 689.726C423.94 657.247 401.168 647.503 330.682 647.503C255.147 647.503 233.086 651.834 220.073 660.495C238.508 687.019 268.871 723.881 334.477 725.453Z" fill="white"/>
<path d="M282.073 659.504C282.073 685.461 303.116 706.504 329.073 706.504C355.031 706.504 376.073 685.461 376.073 659.504C376.073 633.546 357.031 643.004 331.073 643.004C305.116 643.004 282.073 633.546 282.073 659.504Z" fill="#5C351D"/>
<path d="M306.073 659.503C306.073 672.206 316.371 682.503 329.073 682.503C341.776 682.503 352.073 672.206 352.073 659.503C352.073 646.801 341.776 642.503 329.073 642.503C316.371 642.503 306.073 646.801 306.073 659.503Z" fill="black"/>
<path fill-rule="evenodd" clip-rule="evenodd" d="M211.573 650.503C211.573 669.003 268.973 738.503 332.573 734.503C412.073 729.503 439.073 695.003 439.073 675.503C434.503 664.263 414.573 644.503 382.073 636.503C349.573 628.503 253.073 630.003 211.573 650.503ZM423.573 689.503C414.073 701.503 383.573 723.703 333.573 722.503C273.073 721.051 245.073 687.003 228.073 662.503C240.073 654.503 260.417 650.503 330.073 650.503C395.073 650.503 416.073 659.503 423.573 689.503Z" fill="black"/>
<path d="M285.073 614.5C255.073 615.7 231.24 633.333 223.073 642C225.906 644.333 236.373 645.2 255.573 630C279.573 611 345.073 621.5 379.073 619.5C411.683 617.582 426.573 632 428.073 630C429.573 628 408.573 616 402.573 616C377.073 616 322.573 613 285.073 614.5Z" fill="#C96954"/>
<path d="M774.573 2262.5V2083.5C680.572 2123.9 555.073 2143 504.073 2147.5V2215.5H526.073C526.073 2314.5 546.034 2433 549.573 2487.5C553.112 2542 580.073 2567.5 565.573 2585C538.573 2633.5 564.573 2642.5 557.073 2662C549.573 2681.5 557.073 2720 557.073 2783C557.073 2833.4 562.74 2890.33 565.573 2912.5C558.073 2942 536.547 3035 557.073 3058.5C591.574 3098 615.073 3057.5 652.073 3035C689.073 3012.5 740.073 3030 750.073 3026.5C760.073 3023 750.073 2999 750.073 2992C750.073 2985 730.073 2969.5 740.073 2952C750.073 2934.5 738.573 2910 740.073 2883C741.573 2856 758.573 2796.5 762.073 2749.5C765.573 2702.5 750.073 2626 750.073 2597.5C750.073 2569 766.073 2465.5 768.573 2449C771.073 2432.5 774.573 2302 774.573 2262.5Z" fill="#6A9DD0"/>
<path d="M656.074 2996.5C638.074 2998.9 608.574 3020.17 596.074 3030.5C589.574 3015.5 620.074 2996.5 635.074 2992C650.074 2987.5 665.074 2977 691.074 2974.5C717.074 2972 728.074 2988.5 716.074 2988.5C704.074 2988.5 678.574 2993.5 656.074 2996.5Z" fill="#4784C2"/>
<path d="M239.574 2262.5V2083.5C333.574 2123.9 459.074 2143 510.073 2147.5V2215.5H488.073C488.073 2314.5 468.112 2433 464.573 2487.5C461.034 2542 434.073 2567.5 448.573 2585C475.573 2633.5 449.573 2642.5 457.073 2662C464.573 2681.5 457.073 2720 457.073 2783C457.073 2833.4 451.406 2890.33 448.573 2912.5C456.073 2942 477.599 3035 457.073 3058.5C422.573 3098 399.073 3057.5 362.073 3035C325.073 3012.5 274.074 3030 264.074 3026.5C254.074 3023 264.074 2999 264.074 2992C264.074 2985 284.074 2969.5 274.074 2952C264.074 2934.5 275.574 2910 274.074 2883C272.574 2856 255.574 2796.5 252.074 2749.5C248.574 2702.5 264.074 2626 264.074 2597.5C264.074 2569 248.074 2465.5 245.574 2449C243.074 2432.5 239.574 2302 239.574 2262.5Z" fill="#6A9DD0"/>
<path d="M149.573 783L139.136 784.15H139.136L149.573 783ZM141.073 634H130.573V634.117L130.576 634.233L141.073 634ZM855.573 783L845.136 781.85L855.573 783ZM864.073 634L874.571 634.233L874.573 634.117V634H864.073ZM502.573 314.5L502.094 324.989L502.573 325.011L503.052 324.989L502.573 314.5ZM160.01 781.85C154.863 735.133 152.236 663.718 151.571 633.767L130.576 634.233C131.244 664.282 133.883 736.467 139.136 784.15L160.01 781.85ZM237.498 1030.61C210.913 1000.03 193.023 953.137 181.005 905.435C169.061 858.028 163.247 811.233 160.01 781.85L139.136 784.15C142.399 813.768 148.335 861.722 160.641 910.565C172.873 959.113 191.733 1009.97 221.649 1044.39L237.498 1030.61ZM502.573 1177C456.819 1177 404.636 1156.82 356.28 1127.87C308.095 1099.02 264.968 1062.22 237.498 1030.61L221.649 1044.39C250.678 1077.79 295.551 1115.98 345.492 1145.88C395.261 1175.68 451.327 1198 502.573 1198V1177ZM502.573 1198C553.819 1198 609.886 1175.68 659.654 1145.88C709.595 1115.98 754.468 1077.79 783.498 1044.39L767.649 1030.61C740.178 1062.22 697.051 1099.02 648.867 1127.87C600.511 1156.82 548.327 1177 502.573 1177V1198ZM783.498 1044.39C813.413 1009.97 832.273 959.113 844.505 910.565C856.811 861.722 862.747 813.768 866.01 784.15L845.136 781.85C841.899 811.233 836.085 858.028 824.141 905.435C812.123 953.137 794.233 1000.03 767.649 1030.61L783.498 1044.39ZM866.01 784.15C871.263 736.467 873.903 664.282 874.571 634.233L853.576 633.767C852.91 663.718 850.283 735.133 845.136 781.85L866.01 784.15ZM874.573 634V412.5H853.573V634H874.573ZM874.573 412.5C874.573 384.116 855.664 363.386 829.722 348.642C803.731 333.87 768.486 323.706 730.395 316.758C654.021 302.827 562.786 301.241 502.094 304.011L503.052 324.989C562.86 322.259 652.375 323.873 726.627 337.417C763.848 344.207 796.385 353.849 819.346 366.899C842.357 379.977 853.573 395.084 853.573 412.5H874.573ZM151.573 412.5C151.573 395.084 162.789 379.977 185.8 366.899C208.762 353.849 241.298 344.207 278.52 337.417C352.771 323.873 442.286 322.259 502.094 324.989L503.052 304.011C442.36 301.241 351.125 302.827 274.752 316.758C236.661 323.706 201.416 333.87 175.424 348.642C149.482 363.386 130.573 384.116 130.573 412.5H151.573ZM151.573 634V412.5H130.573V634H151.573Z" fill="black"/>
<path d="M85.0732 448.5L76.0732 583.5H144.073C140.573 570 153.573 524.5 163.573 511.5C171.573 501.1 172.24 478.167 171.573 468C241.547 472 295.395 415.667 313.573 387C391.573 424.2 470.073 402.5 499.573 387C563.573 416 617.073 374.5 620.073 374.5C623.073 374.5 628.073 364 640.573 364C673.373 368.4 703.573 350.167 714.573 340.5C710.973 362.1 681.073 400.167 666.573 416.5C716.973 417.3 755.573 381.833 768.573 364C767.407 357.167 770.773 348.6 793.573 369C816.373 389.4 828.407 418.5 831.573 430.5L849.573 547L922.073 591.5V542L909.073 426L918.073 374.5L932.573 369L926.073 333L879.573 264.5H900.573L837.073 197V171L813.073 146V133L835.073 108L735.073 92.5V61L666.573 79L576.073 31L550.073 48.5L432.073 37L410.573 54L244.573 125.5L189.573 112V138.5L127.073 168.5L171.573 185L76.0732 309L85.0732 374.5L69.0732 448.5H85.0732Z" fill="#84532B"/>
<path d="M494.573 204.417C388.073 238.917 327.907 185.417 303.573 160.917C326.373 174.117 359.74 182.75 373.573 185.417C363.173 180.617 356.073 163.084 354.573 156.917C388.173 183.717 445.573 201.917 494.573 204.417Z" fill="#66350D"/>
<path d="M626.073 365.417C555.273 431.817 457.907 376.417 418.073 340.417C430.473 350.817 478.24 361.417 500.573 365.417C431.373 350.617 372.407 280.75 352.073 247.417C400.073 315.017 510.407 339.75 559.073 343.917C527.873 339.517 498.74 319.084 488.073 309.417C643.673 367.417 711.907 293.584 726.573 249.417C740.073 370.917 664.907 360.75 626.073 365.417Z" fill="#66350D"/>
<path d="M345.073 237.417C353.573 268.917 435.273 357.417 502.073 367.417C453.407 337.917 379.073 290.417 345.073 237.417Z" fill="#501F00"/>
<path d="M265.573 373.417C250.373 423.817 194.907 451.417 169.073 458.917C241.073 477.317 297.407 418.584 316.573 386.917C394.973 425.717 466.24 403.084 492.073 386.917C469.673 382.517 419.073 344.084 396.573 325.417C398.973 347.817 417.907 367.75 427.073 374.917C383.873 378.917 338.407 359.584 321.073 349.417C333.073 369.017 359.407 380.25 371.073 383.417C288.573 373.417 233.893 309.917 234.073 308.417C230.473 334.017 253.573 362.417 265.573 373.417Z" fill="#66350D"/>
<path d="M162.073 399.917C173.273 372.317 207.74 352.084 223.573 345.417C203.173 348.217 188.407 353.584 183.573 355.917C179.573 330.717 206.24 300.084 220.073 287.917C152.873 309.517 153.407 371.584 162.073 399.917Z" fill="#66350D"/>
<path d="M238.073 279.917C205.073 262.417 175.073 282.584 163.073 297.417C176.273 289.417 190.24 287.417 195.573 287.417C170.373 303.817 163.407 333.25 163.073 345.917C179.073 303.917 219.74 284.417 238.073 279.917Z" fill="#A17D5F"/>
<path d="M71.5732 434.417C78.3732 411.217 115.573 388.917 139.573 378.417C118.524 397.274 104.269 431.643 93.7737 453.19C99.1297 443.432 105 434.027 109.073 427.917C103.019 443.917 108.217 473.584 111.573 486.417C116.773 483.217 120.407 475.75 121.573 472.417C117.973 504.417 126.073 533.417 130.573 543.917C130.24 539.584 133.273 527.317 148.073 512.917C162.873 498.517 167.24 473.084 167.073 464.917C178.673 478.117 166.573 505.917 159.573 515.417L144.073 553.917L142.573 586.417H105.073L103.073 599.917H80.5732C80.4066 567.584 80.1732 499.617 80.5732 486.417C80.7504 480.571 84.5301 471.175 89.4974 461.303L71.5732 434.417Z" fill="#65340C"/>
<path d="M96.5732 358.417C105.773 329.217 140.073 278.917 162.073 264.917C136.073 264.917 99.2399 297.75 89.5732 310.917L96.5732 358.417Z" fill="#A17D5F"/>
<path d="M202.075 209.417C195.408 213.75 180.573 226.417 177.074 250.917C173.073 235.917 175.275 213.417 202.075 209.417Z" fill="#A17D5F"/>
<path d="M230.573 175.917C174.573 204.317 126.573 247.75 109.573 265.917C113.973 242.317 153.407 200.084 172.573 181.917L132.073 174.417C139.073 164.584 160.673 144.917 191.073 144.917C221.473 144.917 242.073 152.25 248.573 155.917C218.973 152.717 199.907 160.25 194.073 164.417C215.673 166.417 227.407 172.917 230.573 175.917Z" fill="#A17D5F"/>
<path d="M304.073 319.917C263.673 322.717 239.907 309.417 233.073 302.417C233.073 337.617 294.74 363.75 325.573 372.417C305.973 362.417 282.073 339.25 272.573 328.917C290.973 329.717 301.24 323.25 304.073 319.917Z" fill="#A17D5F"/>
<path d="M289.073 274.417C302.907 291.584 342.573 325.917 399.573 352.417C377.573 352.417 299.573 316.417 289.073 274.417Z" fill="#A17D5F"/>
<path d="M528.072 187.417C525.573 148.417 539.469 99.4169 623.069 111.417C589.072 120.417 543.033 133.917 528.072 187.417Z" fill="#66350D"/>
<path d="M546.073 192.417C557.407 181.584 587.073 159.217 615.073 156.417C600.073 149.75 565.273 147.617 546.073 192.417Z" fill="#66350D"/>
<path d="M676.573 183.417C673.073 215.917 654.573 287.417 525.073 277.417C581.073 265.917 653.573 222.917 676.573 183.417Z" fill="#66350D"/>
<path d="M659.573 143.917C616.573 126.417 579.573 143.917 578.073 143.917C580.907 137.25 598.373 124.017 621.573 124.417C644.773 124.817 658.073 137.583 659.573 143.917Z" fill="#A17D5F"/>
<path d="M644.573 167.417C628.74 164.75 592.173 172.917 572.573 226.917C593.907 212.417 638.173 180.217 644.573 167.417Z" fill="#A17D5F"/>
<path d="M673.073 201.417C667.073 226.417 638.673 276.117 573.073 274.917C594.407 270.75 644.273 250.217 673.073 201.417Z" fill="#501F00"/>
<path d="M475.073 272.917C507.873 289.717 586.74 290.25 622.073 288.417C568.473 311.617 482.407 295.084 446.073 283.917L475.073 272.917Z" fill="#66350D"/>
<path d="M558.573 314.417C707.073 338.417 747.573 216.917 702.573 162.417C707.573 190.917 700.873 246.517 638.073 270.917C648.573 271.25 675.773 265.817 700.573 241.417C689.407 265.25 656.073 308.917 558.573 314.417Z" fill="#A17D5F"/>
<path d="M747.573 247.917C758.073 264.417 771.573 302.417 726.073 351.917C743.573 321.417 752.573 273.417 747.573 247.917Z" fill="#A17D5F"/>
<path d="M789.573 243.417C795.973 315.017 717.573 394.917 669.573 411.917C718.073 415.917 764.573 366.417 776.073 355.917C789.573 362.417 803.24 382.584 811.573 394.917C833.973 371.717 831.24 330.25 827.073 312.417C824.273 322.417 815.573 331.25 811.573 334.417C821.173 280.417 800.907 251.25 789.573 243.417Z" fill="#66350D"/>
<path d="M669.073 137.917C670.273 132.717 668.573 115.75 667.573 107.917C677.173 86.717 699.907 78.7503 710.073 77.417C690.073 97.417 674.407 126.084 669.073 137.917Z" fill="#A17D5F"/>
<path d="M822.073 157.917C780.573 122.417 727.073 126.083 710.573 135.417C719.573 140.417 734.073 144.417 764.073 144.417C792.073 144.417 809.573 153.417 822.073 157.917Z" fill="#A17D5F"/>
<path d="M819.073 246.417C829.873 241.617 859.573 244.417 873.073 246.417C892.273 257.617 873.407 266.75 861.573 269.917C844.373 259.917 826.073 250.084 819.073 246.417Z" fill="#66350D"/>
<path d="M924.073 356.917C914.473 312.117 865.407 291.584 842.073 286.917C877.273 307.317 899.74 347.417 906.573 364.917L924.073 356.917Z" fill="#66350D"/>
<path d="M890.573 450.417C895.773 424.417 883.74 388.917 877.073 374.417L915.073 418.917L918.073 595.417H902.073L890.573 586.917L855.073 584.917L853.573 550.417L847.573 534.917C844.907 525.75 839.173 505.317 837.573 496.917C835.973 488.517 834.24 464.084 833.573 452.917C833.573 447.25 835.073 437.517 841.073 443.917C848.573 451.917 858.073 468.417 855.073 472.417C852.073 476.417 840.573 499.917 851.573 508.917C862.573 517.917 872.746 538.035 872.073 539.417C888.473 506.617 882.24 458.084 877.073 437.917C880.673 444.717 887.573 449.084 890.573 450.417Z" fill="#66350D"/>
<path d="M523.073 198.917C481.873 194.517 433.573 164.084 414.573 149.417C423.773 179.417 462.073 198.584 480.073 204.417C418.073 224.817 358.24 202.25 336.073 188.417C423.673 248.017 497.24 220.25 523.073 198.917Z" fill="#A17D5F"/>
<path d="M363.073 105.417C443.873 58.6168 522.073 81.9168 551.073 99.4168C492.673 87.8168 437.407 105.25 417.073 115.417C423.073 104.217 440.907 95.7501 449.073 92.9168C414.673 92.1168 377.407 100.917 363.073 105.417Z" fill="#A17D5F"/>
<path d="M228.573 203.417C225.773 243.017 269.073 285.917 291.073 302.417C275.073 286.417 259.073 256.084 253.073 242.917C371.573 328.417 531.073 283.417 571.073 195.917C407.073 327.417 266.573 197.917 275.573 138.917C260.773 188.117 285.073 228.75 299.073 242.917C276.673 240.517 242.74 215.584 228.573 203.417Z" fill="#66350D"/>
<path d="M118.573 411.917C88.1731 450.317 87.9065 548.917 91.5731 593.417L79.0732 604.917H68.0732C65.6732 529.717 70.7399 481.25 73.5732 466.417C66.3732 475.617 53.9066 479.25 48.5732 479.917C48.5732 432.317 63.5732 401.75 71.0732 392.417C65.4732 397.617 53.7399 400.917 48.5732 401.917C49.7732 377.117 65.7399 348.25 73.5732 336.917C66.3732 340.917 56.9066 338.584 53.0732 336.917C59.8732 276.917 119.24 214.584 148.073 190.917C129.673 191.717 102.74 181.917 91.5731 176.917C103.973 158.117 155.407 139.75 179.573 132.917C174.773 120.117 177.573 95.9169 179.573 85.4169C181.173 91.8169 219.907 108.084 239.073 115.417C283.873 84.0511 349.74 64.0145 377.073 57.9169C356.273 54.3169 346.407 44.0836 344.073 39.4169C398.473 18.2169 473.74 27.2503 504.573 34.4169C471.773 18.4169 429.573 6.08359 412.573 1.91692C465.773 -6.48308 518.407 14.7503 538.073 26.4169C531.273 16.0169 532.573 5.75026 534.073 1.91692C586.473 7.11692 650.24 50.4169 675.573 71.4169C721.573 43.4169 761.073 50.7503 775.073 57.9169C755.473 72.3169 748.907 82.2503 748.073 85.4169C822.473 81.4169 854.073 107.084 860.573 120.417C851.373 128.817 832.407 135.917 824.073 138.417C848.473 151.236 858.573 175.758 860.573 186.417C855.373 182.817 846.74 184.917 843.073 186.417C891.073 214.017 912.407 258.584 917.073 277.417C912.673 273.817 903.24 275.917 899.073 277.417C941.873 313.017 946.907 364.584 944.073 385.917C940.073 379.917 933.74 381.084 931.073 382.417C935.473 397.217 927.24 420.584 922.573 430.417C931.373 467.217 931.073 602.417 931.073 602.417H917.073L911.573 590.417C920.773 458.417 883.74 381.75 864.073 359.917C889.273 371.117 903.907 386.917 908.073 393.417C904.073 374.617 882.407 331.25 872.073 311.917C902.473 327.517 918.407 353.084 922.573 363.917C921.373 321.517 865.407 275.25 837.573 257.417C845.973 251.817 868.74 249.417 879.073 248.917C851.073 213.717 798.073 183.584 775.073 172.917C785.473 162.517 808.407 162.584 818.573 163.917C803.373 146.717 765.24 130.417 748.073 124.417C782.473 127.217 809.407 119.584 818.573 115.417C774.893 100.857 717.63 108.977 693.251 115.115C692.801 115.313 692.406 115.417 692.073 115.417C692.457 115.317 692.85 115.216 693.251 115.115C699.829 112.224 718.182 89.2725 727.073 77.4169C699.873 77.4169 672.407 102.75 662.073 115.417C665.273 108.217 663.407 98.0836 662.073 93.9169C646.873 72.7169 607.073 53.0836 589.073 45.9169C605.073 65.9169 612.073 86.2503 613.573 93.9169C560.373 60.3169 480.74 50.2503 447.573 49.4169C463.973 56.6169 470.74 63.4169 472.073 65.9169C383.273 63.1169 281.74 115.084 242.073 141.417C238.073 137.417 216.073 128.417 205.573 124.417C207.973 131.617 209.907 145.75 210.573 151.917C178.973 151.117 164.74 161.584 161.573 166.917C188.373 167.317 200.073 173.75 202.573 176.917C134.573 220.917 100.24 280.584 91.5731 304.917C101.573 286.117 120.073 278.75 128.073 277.417C112.873 301.417 103.073 333.084 100.073 345.917C114.073 333.517 132.24 331.417 139.573 331.917C101.173 363.917 85.5732 415.917 82.5732 437.917C95.3732 418.717 111.906 412.584 118.573 411.917Z" fill="black"/>
<path d="M135.573 464.917C197.973 442.517 225.573 401.917 231.573 384.417C223.973 425.617 188.407 451.584 171.573 459.417C250.373 463.017 295.74 410.917 308.573 384.417L318.073 390.917C271.673 476.917 177.073 476.084 135.573 464.917Z" fill="black"/>
<path d="M100.073 598.917C92.8728 591.717 95.0728 570.917 97.0728 561.417C99.0725 569.017 105.24 577.25 108.073 580.417H139.073C137.907 571.417 138.873 547.117 152.073 521.917C165.273 496.717 168.573 477.417 168.573 470.917L172.573 464.917L177.073 470.917C178.073 485.417 181.573 488.917 163.573 521.917C149.173 548.317 147.573 576.25 148.573 586.917C136.907 586.084 112.473 584.917 108.073 586.917C103.673 588.917 100.906 595.75 100.073 598.917Z" fill="black"/>
<path d="M500.573 389.917C402.073 443.417 309.573 395.417 278.073 360.417C363.273 414.417 449.073 409.435 494.073 383.917L500.573 389.917Z" fill="black"/>
<path d="M633.073 368.917C548.273 443.717 440.073 370.75 396.573 324.917C506.173 406.117 582.573 401.417 620.073 366.417C605.273 359.217 593.573 347.417 590.573 343.417C676.573 385.817 719.836 332.917 725.073 294.917C728.573 343.417 695.907 390.75 679.573 409.917C736.773 404.717 778.407 343.084 792.073 312.917C791.673 330.917 786.573 347.417 784.073 353.417C823.073 387.417 844.573 434.917 851.573 464.917C841.573 439.317 802.573 384.417 781.073 364.417C766.273 411.217 730.907 426.584 715.073 428.417C753.473 403.217 763.74 381.25 764.073 373.417C726.073 416.617 670.907 425.417 648.073 424.417C684.573 392.417 697.073 365.084 702.573 353.417C678.973 371.817 646.407 371.417 633.073 368.917Z" fill="black"/>
<path d="M829.573 458.417C828.773 437.617 826.573 421.084 825.573 415.417L839.573 433.917C839.573 453.917 835.073 490.197 847.573 518.917C862.197 552.517 862 576.917 859.573 584.917H848.573C852.573 562.917 841.573 541.417 836.073 518.917C830.573 496.417 830.573 484.417 829.573 458.417Z" fill="#020101"/>
<path d="M902.073 594.917V561.917C898.073 570.717 888.74 581.584 884.573 585.917L902.073 594.917Z" fill="black"/>
<path d="M478.573 314.417C413.373 304.817 354.74 237.75 333.073 207.417C374.073 258.417 466.573 283.417 499.573 296.917C499.573 296.917 440.073 279.917 411.073 271.917C437.573 296.917 478.573 314.417 478.573 314.417Z" fill="#A17D5F"/>
<path d="M869.073 702.5C864.673 691.3 863.24 646.833 863.073 626C872.74 608.833 894.578 617.5 895.073 626C897.473 667.2 878.74 694.167 869.073 702.5Z" fill="#66350D"/>
<path d="M867.073 698C886.673 687.2 889.573 642.5 888.573 621.5C872.173 621.5 861.073 626.833 857.573 629.5L867.073 615H893.573L899.073 619C904.273 673 879.907 702.5 867.073 710.5V698Z" fill="black"/>
<path d="M136.29 702.5C140.69 691.3 142.123 646.833 142.29 626C132.623 608.833 110.785 617.5 110.29 626C107.89 667.2 126.623 694.167 136.29 702.5Z" fill="#66350D"/>
<path d="M138.29 698C118.69 687.2 115.79 642.5 116.79 621.5C133.19 621.5 144.29 626.833 147.79 629.5L138.29 615H111.79L106.29 619C101.09 673 125.457 702.5 138.29 710.5V698Z" fill="black"/>
<path d="M600.573 2146.5C573.073 2173 535.073 2191 510.573 2200C502.075 2202.55 501.239 2197.63 503.073 2193C533.073 2187.5 566.573 2167.5 600.573 2146.5Z" fill="#4784C2"/>
<path d="M501.073 2161.5C484.573 2161 452.573 2164.5 450.573 2164.5C470.573 2166.9 492.573 2171.5 501.073 2173.5V2161.5Z" fill="#4784C2"/>
<path fill-rule="evenodd" clip-rule="evenodd" d="M504.588 603.877C504.618 603.875 504.647 603.873 504.677 603.871V603.883C519.789 604.845 556.711 601.488 585 580.371C620.5 553.871 736.5 544.871 812.5 580.371C831.301 589.153 871.396 587.032 887.985 586.154C891.058 585.991 893.325 585.871 894.5 585.871C897 585.871 899 612.371 894.5 612.371C882 612.371 842.5 614.371 834 643.871C832.354 649.583 831.196 656.813 829.871 665.078L829.871 665.079C824.356 699.504 815.962 751.891 757.5 787.371C685 831.371 572.5 792.871 553.5 699.371C551.338 688.731 549.686 679.707 548.286 672.056L548.285 672.053C540.565 629.874 540.473 629.371 504.5 629.371C466.07 629.372 466.045 629.543 458.305 681.867C457.524 687.152 456.663 692.969 455.677 699.371C441.5 791.371 324.177 831.371 251.677 787.371C193.214 751.891 184.821 699.504 179.305 665.079C177.981 656.813 176.822 649.583 175.177 643.871C166.677 614.371 127.177 612.371 114.677 612.371C110.177 612.371 112.177 585.871 114.677 585.871C115.851 585.871 118.118 585.991 121.192 586.154H121.192C137.781 587.032 177.875 589.153 196.677 580.371C272.677 544.871 388.677 553.871 424.177 580.371C452.466 601.488 489.387 604.845 504.5 603.883V603.871C504.529 603.873 504.559 603.875 504.588 603.877ZM418.174 605.371C381.174 568.371 216.992 566.871 204.172 629.871C191.352 692.871 231.672 782.371 324.674 782.371C414.672 782.371 474.677 661.874 418.174 605.371ZM591.003 605.371C628.002 568.371 792.185 566.871 805.004 629.871C817.824 692.871 777.504 782.371 684.503 782.371C594.504 782.371 534.5 661.874 591.003 605.371Z" fill="url(#paint0_radial_201_10856)"/>
<g filter="url(#filter0_f_201_10856)">
<path d="M331.5 579C337.741 572.005 365.485 556.285 383.5 579C395 593.5 363.5 585 331.5 579Z" fill="#3F1B01"/>
</g>
<g opacity="0.6" filter="url(#filter1_f_201_10856)">
<path d="M252.501 583C203.999 575.5 170.001 595.5 168.501 603.5C167 611.5 185.5 635.5 204 626C213 597 274.361 586.38 252.501 583Z" fill="black"/>
</g>
<g opacity="0.8" filter="url(#filter2_f_201_10856)">
<path d="M218.5 722.5C215.148 722.409 174.599 721.845 192.538 686.246C204 663.5 209.5 701.5 218.5 722.5Z" fill="black"/>
</g>
<g opacity="0.5" filter="url(#filter3_f_201_10856)">
<path d="M324.298 787.048C358.999 796.5 301.21 824.393 279.859 790.729C266.217 769.22 289.597 777.595 324.298 787.048Z" fill="black"/>
</g>
<g opacity="0.6" filter="url(#filter4_f_201_10856)">
<path d="M436 717C444 722.5 453.171 761.493 414.437 752.071C397.327 747.908 428 711.5 436 717Z" fill="#3F1B01"/>
</g>
<g filter="url(#filter5_f_201_10856)">
<path d="M680.814 579C674.573 572.005 646.83 556.285 628.814 579C617.314 593.5 648.814 585 680.814 579Z" fill="#3F1B01"/>
</g>
<g opacity="0.6" filter="url(#filter6_f_201_10856)">
<path d="M759.814 583C808.315 575.5 842.313 595.5 843.814 603.5C845.314 611.5 826.814 635.5 808.315 626C799.314 597 737.954 586.38 759.814 583Z" fill="black"/>
</g>
<g opacity="0.8" filter="url(#filter7_f_201_10856)">
<path d="M793.814 722.5C797.166 722.409 837.715 721.845 819.776 686.246C808.314 663.5 802.815 701.5 793.814 722.5Z" fill="black"/>
</g>
<g opacity="0.5" filter="url(#filter8_f_201_10856)">
<path d="M688.016 787.048C653.315 796.5 711.104 824.393 732.456 790.729C746.098 769.22 722.717 777.595 688.016 787.048Z" fill="black"/>
</g>
<g opacity="0.6" filter="url(#filter9_f_201_10856)">
<path d="M576.314 717C568.314 722.5 559.143 761.493 597.878 752.071C614.988 747.908 584.314 711.5 576.314 717Z" fill="#3F1B01"/>
</g>
<path d="M504.677 603.871H508.677V599.596L504.411 599.88L504.677 603.871ZM504.588 603.877L504.328 607.869L504.588 607.886L504.848 607.869L504.588 603.877ZM504.677 603.883H500.677V607.636L504.422 607.875L504.677 603.883ZM585 580.371L582.607 577.166V577.166L585 580.371ZM812.5 580.371L810.807 583.995L812.5 580.371ZM887.985 586.154L888.196 590.148L887.985 586.154ZM834 643.871L837.843 644.979V644.979L834 643.871ZM829.871 665.078L833.804 665.81L833.813 665.76L833.821 665.711L829.871 665.078ZM829.871 665.079L825.939 664.347L825.93 664.397L825.922 664.446L829.871 665.079ZM757.5 787.371L759.575 790.791L757.5 787.371ZM553.5 699.371L549.58 700.168L553.5 699.371ZM548.286 672.056L544.341 672.72L544.346 672.748L544.351 672.776L548.286 672.056ZM548.285 672.053L552.23 671.389L552.225 671.361L552.22 671.333L548.285 672.053ZM504.5 629.371V625.371H504.5L504.5 629.371ZM458.305 681.867L454.348 681.282L458.305 681.867ZM455.677 699.371L459.63 699.98L455.677 699.371ZM251.677 787.371L249.601 790.791L251.677 787.371ZM179.305 665.079L175.355 665.712V665.712L179.305 665.079ZM175.177 643.871L179.02 642.764L175.177 643.871ZM121.192 586.154L120.98 590.148L121.086 590.154H121.192V586.154ZM121.192 586.154L121.403 582.159L121.297 582.154H121.192V586.154ZM196.677 580.371L194.984 576.747L196.677 580.371ZM424.177 580.371L426.569 577.166V577.166L424.177 580.371ZM504.5 603.883L504.754 607.875L508.5 607.636V603.883H504.5ZM504.5 603.871L504.766 599.88L500.5 599.596V603.871H504.5ZM204.172 629.871L200.252 629.073L204.172 629.871ZM418.174 605.371L421.002 602.542L418.174 605.371ZM805.004 629.871L808.924 629.073L805.004 629.871ZM591.003 605.371L593.831 608.199L591.003 605.371ZM504.411 599.88C504.383 599.882 504.356 599.884 504.328 599.886L504.848 607.869C504.88 607.867 504.911 607.864 504.942 607.862L504.411 599.88ZM508.677 603.883V603.871H500.677V603.883H508.677ZM504.422 607.875C520.092 608.873 558.078 605.459 587.393 583.577L582.607 577.166C555.343 597.518 519.487 600.818 504.931 599.891L504.422 607.875ZM587.393 583.577C595.628 577.429 608.919 572.056 625.753 568.093C642.501 564.149 662.428 561.676 683.667 561.12C726.21 560.005 773.543 566.589 810.807 583.995L814.193 576.747C775.457 558.653 726.789 551.987 683.458 553.123C661.76 553.691 641.28 556.218 623.919 560.306C606.643 564.373 592.122 570.063 582.607 577.166L587.393 583.577ZM810.807 583.995C821.023 588.767 836.491 590.425 850.945 590.883C865.582 591.347 879.908 590.587 888.196 590.148L887.773 582.159C879.472 582.599 865.457 583.339 851.199 582.887C836.758 582.43 822.778 580.758 814.193 576.747L810.807 583.995ZM888.196 590.148C891.34 589.982 893.461 589.871 894.5 589.871V581.871C893.189 581.871 890.776 582 887.773 582.159L888.196 590.148ZM894.5 589.871C892.787 589.871 891.909 588.76 891.803 588.624C891.615 588.382 891.597 588.263 891.68 588.475C891.829 588.853 892.039 589.602 892.257 590.753C892.68 592.997 893.008 596.105 893.128 599.272C893.248 602.465 893.147 605.477 892.802 607.585C892.623 608.679 892.424 609.234 892.334 609.409C892.176 609.718 892.751 608.371 894.5 608.371V616.371C897.374 616.371 898.871 614.196 899.455 613.056C900.107 611.782 900.47 610.267 900.697 608.876C901.165 606.015 901.251 602.402 901.122 598.97C900.991 595.512 900.632 591.996 900.118 589.27C899.866 587.937 899.546 586.616 899.124 585.545C898.922 585.032 898.609 584.344 898.119 583.714C897.711 583.189 896.525 581.871 894.5 581.871V589.871ZM894.5 608.371C888.103 608.371 874.592 608.873 861.479 613.266C848.367 617.658 834.923 626.22 830.156 642.764L837.843 644.979C841.577 632.022 852.132 624.834 864.02 620.852C875.908 616.869 888.397 616.371 894.5 616.371V608.371ZM830.156 642.764C828.428 648.761 827.232 656.265 825.922 664.445L833.821 665.711C835.159 657.361 836.28 650.404 837.843 644.979L830.156 642.764ZM825.939 664.346L825.939 664.347L833.804 665.811L833.804 665.81L825.939 664.346ZM825.922 664.446C820.419 698.789 812.225 749.48 755.424 783.952L759.575 790.791C819.699 754.302 828.292 700.218 833.821 665.712L825.922 664.446ZM755.424 783.952C720.395 805.211 675.486 806.633 636.922 791.219C598.417 775.83 566.612 743.811 557.42 698.575L549.58 700.168C559.387 748.431 593.333 782.413 633.953 798.648C674.514 814.86 722.104 813.531 759.575 790.791L755.424 783.952ZM557.42 698.575C555.266 687.976 553.621 678.987 552.22 671.336L544.351 672.776C545.751 680.428 547.409 689.485 549.58 700.168L557.42 698.575ZM552.23 671.391L552.23 671.389L544.341 672.718L544.341 672.72L552.23 671.391ZM552.22 671.333C550.304 660.864 548.816 652.714 547.101 646.522C545.392 640.354 543.302 635.498 539.794 632.044C536.183 628.491 531.582 626.909 525.972 626.145C520.456 625.395 513.398 625.371 504.5 625.371V633.371C513.589 633.371 520.032 633.411 524.893 634.072C529.659 634.721 532.307 635.901 534.182 637.746C536.158 639.691 537.787 642.869 539.391 648.658C540.988 654.423 542.407 662.154 544.351 672.774L552.22 671.333ZM462.262 682.452C464.207 669.304 465.635 659.668 467.283 652.484C468.944 645.241 470.699 641.144 472.9 638.636C474.936 636.316 477.746 634.926 482.754 634.171C487.916 633.393 494.771 633.371 504.5 633.371L504.5 625.371C495.013 625.371 487.454 625.372 481.561 626.26C475.514 627.172 470.628 629.096 466.887 633.359C463.31 637.435 461.206 643.191 459.485 650.696C457.75 658.261 456.273 668.268 454.348 681.282L462.262 682.452ZM459.63 699.98C460.619 693.564 461.481 687.736 462.262 682.452L454.348 681.282C453.566 686.567 452.708 692.373 451.723 698.762L459.63 699.98ZM249.601 790.791C287.104 813.551 335.906 814.468 377.028 798.087C418.206 781.684 452.28 747.676 459.63 699.98L451.723 698.762C444.896 743.066 413.22 775.059 374.068 790.655C334.859 806.274 288.75 805.192 253.752 783.952L249.601 790.791ZM175.355 665.712C180.884 700.218 189.477 754.302 249.601 790.791L253.752 783.952C196.951 749.48 188.757 698.789 183.255 664.446L175.355 665.712ZM171.333 644.979C172.896 650.405 174.018 657.361 175.355 665.712L183.255 664.446C181.944 656.265 180.748 648.761 179.02 642.764L171.333 644.979ZM114.677 616.371C120.78 616.371 133.269 616.869 145.156 620.852C157.044 624.834 167.6 632.022 171.333 644.979L179.02 642.764C174.253 626.22 160.809 617.658 147.697 613.266C134.584 608.873 121.073 608.371 114.677 608.371V616.371ZM114.677 581.871C112.651 581.871 111.465 583.189 111.057 583.714C110.567 584.344 110.254 585.032 110.052 585.545C109.631 586.616 109.31 587.937 109.058 589.27C108.544 591.996 108.185 595.512 108.054 598.97C107.925 602.402 108.011 606.015 108.479 608.876C108.706 610.267 109.069 611.782 109.722 613.056C110.306 614.196 111.803 616.371 114.677 616.371V608.371C116.426 608.371 117 609.718 116.842 609.409C116.752 609.234 116.553 608.679 116.374 607.585C116.029 605.477 115.928 602.465 116.049 599.272C116.168 596.105 116.496 592.997 116.92 590.753C117.137 589.602 117.347 588.853 117.496 588.475C117.58 588.263 117.561 588.382 117.373 588.624C117.267 588.76 116.389 589.871 114.677 589.871V581.871ZM121.403 582.159C118.4 582 115.987 581.871 114.677 581.871V589.871C115.716 589.871 117.836 589.982 120.98 590.148L121.403 582.159ZM121.192 582.154H121.192V590.154H121.192V582.154ZM194.984 576.747C186.398 580.758 172.418 582.43 157.978 582.887C143.72 583.339 129.704 582.599 121.403 582.159L120.98 590.148C129.268 590.587 143.594 591.347 158.231 590.883C172.685 590.425 188.154 588.767 198.369 583.995L194.984 576.747ZM426.569 577.166C417.055 570.063 402.533 564.373 385.257 560.306C367.896 556.218 347.417 553.691 325.719 553.123C282.387 551.987 233.72 558.653 194.984 576.747L198.369 583.995C235.633 566.589 282.966 560.005 325.509 561.12C346.749 561.676 366.675 564.149 383.424 568.093C400.258 572.056 413.548 577.429 421.784 583.577L426.569 577.166ZM504.246 599.891C489.689 600.818 453.833 597.518 426.569 577.166L421.784 583.577C451.098 605.459 489.085 608.873 504.754 607.875L504.246 599.891ZM508.5 603.883V603.871H500.5V603.883H508.5ZM504.234 607.862C504.265 607.864 504.296 607.867 504.328 607.869L504.848 599.886C504.821 599.884 504.793 599.882 504.766 599.88L504.234 607.862ZM208.092 630.668C210.931 616.714 222.25 605.79 239.481 597.898C256.654 590.032 279.005 585.533 302.348 584.113C325.659 582.696 349.691 584.365 370.109 588.645C390.711 592.964 406.946 599.8 415.345 608.199L421.002 602.542C410.902 592.441 392.74 585.215 371.75 580.815C350.577 576.377 325.826 574.671 301.863 576.128C277.934 577.583 254.522 582.209 236.149 590.625C217.834 599.014 203.823 611.527 200.252 629.073L208.092 630.668ZM324.674 778.371C279.634 778.371 247.503 756.771 228.071 727.532C208.546 698.151 201.898 661.107 208.092 630.668L200.252 629.073C193.627 661.634 200.728 700.84 221.408 731.96C242.183 763.22 276.712 786.371 324.674 786.371V778.371ZM415.345 608.199C441.904 634.758 441.544 676.912 422.807 713.225C404.114 749.453 367.8 778.371 324.674 778.371V786.371C371.545 786.371 410.233 755.04 429.916 716.893C449.555 678.833 450.947 632.487 421.002 602.542L415.345 608.199ZM808.924 629.073C805.354 611.527 791.342 599.014 773.027 590.625C754.654 582.209 731.243 577.583 707.314 576.128C683.351 574.671 658.599 576.377 637.426 580.815C616.436 585.215 598.275 592.441 588.174 602.542L593.831 608.199C602.23 599.8 618.466 592.964 639.067 588.645C659.485 584.365 683.518 582.696 706.828 584.113C730.172 585.533 752.522 590.032 769.695 597.898C786.926 605.79 798.245 616.714 801.085 630.668L808.924 629.073ZM684.503 786.371C732.465 786.371 766.994 763.22 787.768 731.96C808.448 700.84 815.55 661.634 808.924 629.073L801.085 630.668C807.279 661.107 800.63 698.151 781.105 727.532C761.674 756.771 729.542 778.371 684.503 778.371V786.371ZM588.174 602.542C558.23 632.487 559.621 678.833 579.26 716.893C598.943 755.04 637.631 786.371 684.503 786.371V778.371C641.376 778.371 605.062 749.453 586.369 713.225C567.632 676.912 567.273 634.758 593.831 608.199L588.174 602.542Z" fill="black"/>
<path d="M603.573 1203C603.573 1207.69 607.379 1211.5 612.073 1211.5C616.768 1211.5 620.573 1207.69 620.573 1203H603.573ZM603.573 1159V1203H620.573V1159H603.573Z" fill="black"/>
<path d="M244.497 2216.5L168.997 2131C175.83 2080 192.397 1961 203.997 1893C221.197 1829 201.497 1738.33 189.497 1701C209.897 1664.6 200.664 1625.17 193.497 1610C137.097 1610 85.3304 1592 66.4971 1583C57.9971 1598.5 62.4971 1694 66.4971 1704.5C39.4971 1745 51.4971 1749 43.4971 1799C38.2971 1898.2 69.6637 2058.67 85.9971 2126.5C-0.00292969 2222.5 48.9971 2347.5 64.9971 2390.5C77.7971 2424.9 110.33 2439.83 124.997 2443C132.997 2458.2 159.664 2469 171.997 2472.5C187.997 2481.7 203.664 2475.33 209.497 2471C235.997 2491.5 266.997 2468.5 248.497 2450.5C233.697 2436.1 224.997 2387.5 222.497 2365H244.497V2216.5Z" fill="#F7B992"/>
<path d="M74.4971 1698C33.4971 1732 25.4971 1823.5 82.4971 2119.5" stroke="black" stroke-width="17" stroke-linecap="round"/>
<path d="M183.496 1701C230.497 1778 195.496 1963.5 169.995 2130.5" stroke="black" stroke-width="17" stroke-linecap="round"/>
<path d="M61.9971 1579C60.3304 1608.67 57.9971 1675.7 61.9971 1706.5" stroke="black" stroke-width="17" stroke-linecap="round"/>
<path d="M198.497 1615C199.497 1638.33 199.797 1690.2 192.997 1711" stroke="black" stroke-width="17" stroke-linecap="round"/>
<path d="M88.9971 2125C71.4971 2138.33 36.6971 2179.5 37.4971 2237.5C38.4971 2310 57.4971 2423 118.997 2443.5" stroke="black" stroke-width="12" stroke-linecap="round"/>
<path d="M77.4971 2302C84.1637 2355.5 112.297 2464.3 171.497 2471.5" stroke="black" stroke-width="12" stroke-linecap="round"/>
<path d="M125.997 2322C124.664 2341.83 124.297 2386 133.497 2404C144.997 2426.5 162.497 2475.5 190.497 2478.5C201.497 2479.68 210.497 2468 211.497 2471" stroke="black" stroke-width="12" stroke-linecap="round"/>
<path d="M166.501 2326.5C166.501 2379 156.697 2411.12 213.501 2472C227.497 2487 260.997 2472 239.996 2438.5C227.663 2415.67 206.197 2355.7 218.997 2298.5" stroke="black" stroke-width="12" stroke-linecap="round"/>
<path d="M167.497 2133C189.83 2156.33 236.297 2205.4 243.497 2215V2368.5C238.83 2370 226.797 2369.3 215.997 2354.5" stroke="black" stroke-width="12" stroke-linecap="round"/>
<path d="M775.573 2216.5L851.073 2131C844.24 2080 827.673 1961 816.073 1893C798.873 1829 818.573 1738.33 830.573 1701C810.173 1664.6 819.407 1625.17 826.573 1610C882.973 1610 934.74 1592 953.573 1583C962.073 1598.5 957.573 1694 953.573 1704.5C980.573 1745 968.573 1749 976.573 1799C981.773 1898.2 950.407 2058.67 934.073 2126.5C1020.07 2222.5 971.073 2347.5 955.073 2390.5C942.273 2424.9 909.74 2439.83 895.073 2443C887.073 2458.2 860.407 2469 848.073 2472.5C832.073 2481.7 816.407 2475.33 810.573 2471C784.073 2491.5 753.073 2468.5 771.573 2450.5C786.373 2436.1 795.073 2387.5 797.573 2365H775.573V2216.5Z" fill="#F7B992"/>
<path d="M945.573 1698C986.573 1732 994.573 1823.5 937.573 2119.5" stroke="black" stroke-width="17" stroke-linecap="round"/>
<path d="M836.574 1701C789.573 1778 824.574 1963.5 850.075 2130.5" stroke="black" stroke-width="17" stroke-linecap="round"/>
<path d="M958.073 1579C959.74 1608.67 962.073 1675.7 958.073 1706.5" stroke="black" stroke-width="17" stroke-linecap="round"/>
<path d="M821.573 1615C820.573 1638.33 820.273 1690.2 827.073 1711" stroke="black" stroke-width="17" stroke-linecap="round"/>
<path d="M931.073 2125C948.573 2138.33 983.373 2179.5 982.573 2237.5C981.573 2310 962.573 2423 901.073 2443.5" stroke="black" stroke-width="12" stroke-linecap="round"/>
<path d="M942.573 2302C935.907 2355.5 907.773 2464.3 848.573 2471.5" stroke="black" stroke-width="12" stroke-linecap="round"/>
<path d="M894.073 2322C895.407 2341.83 895.773 2386 886.573 2404C875.073 2426.5 857.573 2475.5 829.573 2478.5C818.573 2479.68 809.573 2468 808.573 2471" stroke="black" stroke-width="12" stroke-linecap="round"/>
<path d="M853.569 2326.5C853.569 2379 863.373 2411.12 806.569 2472C792.574 2487 759.073 2472 780.074 2438.5C792.407 2415.67 813.873 2355.7 801.073 2298.5" stroke="black" stroke-width="12" stroke-linecap="round"/>
<path d="M852.573 2133C830.24 2156.33 783.773 2205.4 776.573 2215V2368.5C781.24 2370 793.273 2369.3 804.073 2354.5" stroke="black" stroke-width="12" stroke-linecap="round"/>
<path d="M393.073 1203C393.073 1207.69 396.879 1211.5 401.573 1211.5C406.268 1211.5 410.073 1207.69 410.073 1203H393.073ZM393.073 1159V1203H410.073V1159H393.073Z" fill="black"/>
<path d="M662.573 1175.5C644.573 1249 599.573 1290 503.573 1290C416.073 1290 365.073 1253.5 345.073 1175.5C323.24 1177.67 267.273 1185.3 218.073 1198.5C156.573 1215 145.573 1203.5 119.573 1219.5C93.5733 1235.5 56.5733 1305 49.5733 1378.5C42.5733 1452 11.5733 1527 9.07327 1534.5C6.57327 1542 68.0733 1617 189.573 1609C202.907 1644.83 230.573 1732.3 234.573 1795.5C238.573 1858.7 230.573 2004.83 226.073 2070C259.907 2094.67 362.773 2144 503.573 2144C644.373 2144 757.573 2094.67 796.573 2070C794.573 1959.67 786.073 1728.5 824.073 1609C908.573 1609 1010.07 1559 995.573 1529C981.073 1499 955.573 1373 942.573 1303.5C929.573 1234 883.377 1211.72 842.573 1207C782.073 1200 687.073 1175.5 662.573 1175.5Z" fill="#CC3333"/>
<path d="M662.573 1591C565.073 1699 430.907 1773 376.573 1793.5C447.073 1790 490.573 1738.35 513.573 1727.5C562.573 1704.38 643.073 1630 662.573 1591Z" fill="#751D1D"/>
<path d="M460.073 1850C481.74 1838.33 534.073 1805 570.073 1765C559.74 1790.33 523.273 1842.8 460.073 1850Z" fill="#751D1D"/>
<path d="M825.073 1609.5C924.073 1609.5 1010.07 1559 995.573 1529C981.073 1499 955.573 1373 942.573 1303.5C929.573 1234 883.377 1211.72 842.573 1207C782.073 1200 687.073 1175.5 662.573 1175.5C644.573 1249 599.573 1290 503.573 1290C416.073 1290 365.073 1253.5 345.073 1175.5C323.24 1177.67 267.273 1185.3 218.073 1198.5C156.573 1215 145.573 1203.5 119.573 1219.5C93.5733 1235.5 56.5733 1305 49.5733 1378.5C42.5733 1452 11.5733 1527 9.07327 1534.5C6.57327 1542 68.0733 1617 189.573 1609" stroke="black" stroke-width="17"/>
<path d="M170.911 3131C189.311 3121.4 241.244 3060.67 264.911 3031.5C351.411 3006.5 385.41 3055 401.41 3068C414.21 3078.4 434.744 3076.33 443.411 3074C447.077 3093 455.073 3138 450.574 3167.5C447.512 3187.57 366.744 3212.33 333.911 3215C271.911 3191 152.511 3140.6 170.911 3131Z" fill="#CC3300"/>
<path d="M254.91 3142.5C322.91 3144.5 340.91 3193.83 341.41 3216C230.91 3242 124.41 3220.5 114.41 3208.5C109.279 3202.34 112.41 3174.5 131.41 3156.5C150.41 3138.5 169.91 3140 254.91 3142.5Z" fill="white" stroke="black" stroke-width="8"/>
<path d="M392.911 3122C401.311 3111.6 406.907 3081.33 408.073 3070.5L447.574 3067C450.24 3092.5 457.973 3152.7 451.573 3169.5C445.173 3186.3 388.744 3202.33 366.411 3206C363.411 3192.5 360.311 3163 371.911 3153C386.411 3140.5 382.411 3135 392.911 3122Z" fill="#A92201"/>
<path d="M349.414 3066.39C340.614 3055.59 286.413 3060.89 262.913 3058.39C262.913 3048.39 322.414 3028.89 352.413 3045.39C387.772 3064.84 360.414 3079.89 349.414 3066.39Z" fill="white" stroke="#F9AFAA" stroke-width="6"/>
<path d="M341.914 3087.39C370.714 3087.39 362.411 3067.26 352.413 3064.89C259.413 3038.89 215.914 3087.39 253.914 3080.89C291.914 3074.39 305.914 3087.39 341.914 3087.39Z" fill="white" stroke="#F9AFAA" stroke-width="6"/>
<path d="M234.413 3093.39C280.813 3083.39 308.913 3103.56 320.913 3114.39C338.58 3119.73 354.619 3100.35 328.413 3084.89C278.413 3055.39 197.413 3101.37 234.413 3093.39Z" fill="white" stroke="#F9AFAA" stroke-width="6"/>
<path d="M246.411 3263.5C360.011 3261.5 428.077 3217.33 447.911 3195.5C455.511 3177.9 448.077 3174.17 443.411 3174.5C328.611 3241.7 173.244 3223.5 109.911 3206V3230.5C108.077 3242.33 132.811 3265.5 246.411 3263.5Z" fill="white"/>
<path d="M222.913 3112.89C265.313 3107.69 288.247 3118.73 294.913 3127.89C319.913 3137.39 330.913 3106.89 286.413 3094.89C241.913 3082.89 169.913 3119.39 222.913 3112.89Z" fill="white" stroke="#F9AFAA" stroke-width="6"/>
<path d="M451.41 3170.5C432.243 3188.33 354.41 3228 230.41 3228C147.41 3224 131.91 3220 108.41 3204.5" stroke="black" stroke-width="8"/>
<path d="M449.41 3065.5C452.41 3079.83 457.51 3120 453.91 3166C454.744 3171.5 456.51 3186.1 456.91 3200.5C432.077 3223.83 353.11 3270.5 235.91 3270.5C118.71 3270.5 96.4102 3239.5 99.9102 3224C99.9102 3219 100.81 3207.3 104.41 3200.5C105.41 3186.33 113.81 3154.4 139.41 3140C171.41 3122 213.91 3093 265.91 3030" stroke="black" stroke-width="14" stroke-linecap="round" stroke-linejoin="round"/>
<path d="M842.577 3131C824.177 3121.4 772.243 3060.67 748.577 3031.5C662.076 3006.5 628.077 3055 612.077 3068C599.277 3078.4 578.744 3076.33 570.077 3074C566.41 3093 561.277 3138.6 570.077 3169C578.877 3199.4 646.743 3212.33 679.577 3215C741.577 3191 860.977 3140.6 842.577 3131Z" fill="#CC3300"/>
<path d="M758.577 3142.5C690.577 3144.5 672.577 3193.83 672.077 3216C782.577 3242 889.077 3220.5 899.077 3208.5C904.209 3202.34 901.077 3174.5 882.077 3156.5C863.077 3138.5 843.577 3140 758.577 3142.5Z" fill="white" stroke="black" stroke-width="8"/>
<path d="M620.576 3122C612.176 3111.6 607.743 3087.33 606.576 3076.5L566.577 3069.5C563.911 3095 557.177 3151.2 563.577 3168C569.977 3184.8 624.743 3202.33 647.076 3206C650.076 3192.5 653.176 3163 641.576 3153C627.076 3140.5 631.076 3135 620.576 3122Z" fill="#A92201"/>
<path d="M664.074 3066.39C672.874 3055.59 727.074 3060.89 750.574 3058.39C750.574 3048.39 691.073 3028.89 661.074 3045.39C625.715 3064.84 653.074 3079.89 664.074 3066.39Z" fill="white" stroke="#F9AFAA" stroke-width="6"/>
<path d="M671.573 3087.39C642.773 3087.39 651.076 3067.26 661.074 3064.89C754.074 3038.89 797.573 3087.39 759.573 3080.89C721.573 3074.39 707.573 3087.39 671.573 3087.39Z" fill="white" stroke="#F9AFAA" stroke-width="6"/>
<path d="M779.074 3093.39C732.674 3083.39 704.574 3103.56 692.574 3114.39C674.907 3119.73 658.869 3100.35 685.074 3084.89C735.074 3055.39 816.074 3101.37 779.074 3093.39Z" fill="white" stroke="#F9AFAA" stroke-width="6"/>
<path d="M767.077 3263.5C653.477 3261.5 585.41 3217.33 565.577 3195.5C557.977 3177.9 565.41 3174.17 570.077 3174.5C684.877 3241.7 840.243 3223.5 903.577 3206V3230.5C905.41 3242.33 880.677 3265.5 767.077 3263.5Z" fill="white"/>
<path d="M790.574 3112.89C748.174 3107.69 725.24 3118.73 718.574 3127.89C693.574 3137.39 682.574 3106.89 727.074 3094.89C771.574 3082.89 843.574 3119.39 790.574 3112.89Z" fill="white" stroke="#F9AFAA" stroke-width="6"/>
<path d="M562.077 3170.5C581.244 3188.33 659.077 3228 783.077 3228C866.077 3224 881.577 3220 905.077 3204.5" stroke="black" stroke-width="8"/>
<path d="M564.077 3065.5C561.077 3079.83 555.977 3120 559.577 3166C558.744 3171.5 556.977 3186.1 556.577 3200.5C581.41 3223.83 660.377 3270.5 777.577 3270.5C894.777 3270.5 917.077 3239.5 913.577 3224C913.577 3219 912.677 3207.3 909.077 3200.5C908.077 3186.33 899.677 3154.4 874.077 3140C842.077 3122 799.577 3093 747.577 3030" stroke="black" stroke-width="14" stroke-linecap="round" stroke-linejoin="round"/>
<path d="M841.073 1337C844.24 1384.33 848.673 1489.9 841.073 1533.5C831.573 1588 791.073 1736 794.573 1819C798.073 1902 801.573 2050 801.573 2062.5C801.573 2075 616.573 2145 504.073 2145C391.573 2145 268.073 2109.5 223.573 2062.5C226.073 1995 231.273 1851.8 232.073 1819C233.915 1743.5 193.573 1601.5 182.573 1533.5C176.657 1496.93 171.073 1382.5 172.573 1337" stroke="black" stroke-width="17" stroke-linecap="round"/>
<path d="M612.573 1175C625.573 1174.83 655.173 1175.7 669.573 1180.5" stroke="black" stroke-width="17"/>
<path d="M676.073 2124.5C682.073 2137.83 700.073 2164 724.073 2162C748.073 2160 764.073 2129.5 769.073 2114.5" stroke="#1E4976" stroke-width="9"/>
<path d="M338.073 2124.5C332.073 2137.83 314.073 2164 290.073 2162C266.073 2160 250.073 2129.5 245.073 2114.5" stroke="#1E4976" stroke-width="9"/>
<path d="M404.573 1175C391.573 1174.83 361.973 1175.7 347.573 1180.5" stroke="black" stroke-width="17"/>
<path d="M774.573 2083.5C774.573 2130 774.573 2230.9 774.573 2262.5C774.573 2302 771.073 2432.5 768.573 2449C766.073 2465.5 750.073 2569 750.073 2597.5C750.073 2626 765.573 2702.5 762.073 2749.5C758.573 2796.5 741.573 2856 740.073 2883C738.573 2910 750.073 2934.5 740.073 2952C730.073 2969.5 750.073 2985 750.073 2992C750.073 2999 760.073 3023 750.073 3026.5C740.073 3030 689.073 3012.5 652.073 3035C615.073 3057.5 591.574 3098 557.073 3058.5C536.547 3035 558.073 2942 565.573 2912.5C562.74 2890.33 557.073 2833.4 557.073 2783C557.073 2720 549.573 2681.5 557.073 2662C564.573 2642.5 538.573 2633.5 565.573 2585C580.073 2567.5 553.112 2542 549.573 2487.5C546.034 2433 526.073 2314.5 526.073 2215.5" stroke="black" stroke-width="17" stroke-linecap="round"/>
<path d="M239.574 2083.5C239.574 2130 239.574 2230.9 239.574 2262.5C239.574 2302 243.074 2432.5 245.574 2449C248.074 2465.5 264.074 2569 264.074 2597.5C264.074 2626 248.574 2702.5 252.074 2749.5C255.574 2796.5 272.574 2856 274.074 2883C275.574 2910 264.074 2934.5 274.074 2952C284.074 2969.5 264.074 2985 264.074 2992C264.074 2999 254.074 3023 264.074 3026.5C274.074 3030 325.073 3012.5 362.073 3035C399.073 3057.5 422.573 3098 457.073 3058.5C477.599 3035 456.073 2942 448.573 2912.5C451.406 2890.33 457.073 2833.4 457.073 2783C457.073 2720 464.573 2681.5 457.073 2662C449.573 2642.5 475.573 2633.5 448.573 2585C434.073 2567.5 461.034 2542 464.573 2487.5C468.112 2433 488.073 2314.5 488.073 2215.5" stroke="black" stroke-width="17" stroke-linecap="round"/>
<path d="M653.073 2689.5C679.573 2667.5 695.573 2647 709.573 2618.5C706.073 2641.5 688.073 2676 653.073 2689.5Z" fill="#4784C2"/>
<path d="M361.073 2689.5C334.573 2667.5 318.573 2647 304.573 2618.5C308.073 2641.5 326.073 2676 361.073 2689.5Z" fill="#4784C2"/>
<path d="M642.573 2726.5C652.573 2719.33 676.573 2698.5 692.573 2672.5C689.407 2687.17 674.973 2718.5 642.573 2726.5Z" fill="#4784C2"/>
<path d="M371.573 2726.5C361.573 2719.33 337.573 2698.5 321.573 2672.5C324.74 2687.17 339.173 2718.5 371.573 2726.5Z" fill="#4784C2"/>
<path d="M676.573 2724C678.907 2722.67 688.273 2713.6 695.073 2700C695.573 2705.17 690.173 2719.6 676.573 2724Z" fill="#4784C2"/>
<path d="M337.573 2724C335.24 2722.67 325.873 2713.6 319.073 2700C318.573 2705.17 323.973 2719.6 337.573 2724Z" fill="#4784C2"/>
<path d="M676.074 2941.5C661.674 2949.1 634.074 2947.67 622.074 2946C609.074 2959.5 655.074 2957 672.574 2953C686.574 2949.8 702.074 2930.67 708.074 2921.5C703.407 2925 690.474 2933.9 676.074 2941.5Z" fill="#4784C2"/>
<path d="M338.072 2941.5C352.472 2949.1 380.072 2947.67 392.072 2946C405.072 2959.5 359.072 2957 341.572 2953C327.572 2949.8 312.072 2930.67 306.072 2921.5C310.739 2925 323.672 2933.9 338.072 2941.5Z" fill="#4784C2"/>
<path d="M358.072 2996.5C376.072 2998.9 405.572 3020.17 418.072 3030.5C424.572 3015.5 394.072 2996.5 379.072 2992C364.072 2987.5 349.072 2977 323.072 2974.5C297.072 2972 286.072 2988.5 298.072 2988.5C310.072 2988.5 335.572 2993.5 358.072 2996.5Z" fill="#4784C2"/>
<path d="M414.073 2216C451.24 2217.17 541.773 2213.5 606.573 2189.5" stroke="black" stroke-width="17" stroke-linecap="round"/>
<path d="M501.573 2154.5V2206.5" stroke="#1E4976" stroke-width="6"/>
<path d="M534.573 2149.5C537.073 2155.83 539.473 2169.8 529.073 2175C518.673 2180.2 512.073 2179.83 510.073 2179" stroke="#1E4976" stroke-width="6"/>
<defs>
<filter id="filter0_f_201_10856" x="323.5" y="559.164" width="70.4199" height="35.8301" filterUnits="userSpaceOnUse" color-interpolation-filters="sRGB">
<feFlood flood-opacity="0" result="BackgroundImageFix"/>
<feBlend mode="normal" in="SourceGraphic" in2="BackgroundImageFix" result="shape"/>
<feGaussianBlur stdDeviation="4" result="effect1_foregroundBlur_201_10856"/>
</filter>
<filter id="filter1_f_201_10856" x="155.415" y="568.347" width="114.763" height="72.8428" filterUnits="userSpaceOnUse" color-interpolation-filters="sRGB">
<feFlood flood-opacity="0" result="BackgroundImageFix"/>
<feBlend mode="normal" in="SourceGraphic" in2="BackgroundImageFix" result="shape"/>
<feGaussianBlur stdDeviation="6.5" result="effect1_foregroundBlur_201_10856"/>
</filter>
<filter id="filter2_f_201_10856" x="179.979" y="671.225" width="46.5215" height="59.2749" filterUnits="userSpaceOnUse" color-interpolation-filters="sRGB">
<feFlood flood-opacity="0" result="BackgroundImageFix"/>
<feBlend mode="normal" in="SourceGraphic" in2="BackgroundImageFix" result="shape"/>
<feGaussianBlur stdDeviation="4" result="effect1_foregroundBlur_201_10856"/>
</filter>
<filter id="filter3_f_201_10856" x="267.91" y="769.212" width="75.2344" height="45.6743" filterUnits="userSpaceOnUse" color-interpolation-filters="sRGB">
<feFlood flood-opacity="0" result="BackgroundImageFix"/>
<feBlend mode="normal" in="SourceGraphic" in2="BackgroundImageFix" result="shape"/>
<feGaussianBlur stdDeviation="4" result="effect1_foregroundBlur_201_10856"/>
</filter>
<filter id="filter4_f_201_10856" x="401.326" y="708.436" width="49.7422" height="53.0972" filterUnits="userSpaceOnUse" color-interpolation-filters="sRGB">
<feFlood flood-opacity="0" result="BackgroundImageFix"/>
<feBlend mode="normal" in="SourceGraphic" in2="BackgroundImageFix" result="shape"/>
<feGaussianBlur stdDeviation="4" result="effect1_foregroundBlur_201_10856"/>
</filter>
<filter id="filter5_f_201_10856" x="618.395" y="559.164" width="70.4199" height="35.8301" filterUnits="userSpaceOnUse" color-interpolation-filters="sRGB">
<feFlood flood-opacity="0" result="BackgroundImageFix"/>
<feBlend mode="normal" in="SourceGraphic" in2="BackgroundImageFix" result="shape"/>
<feGaussianBlur stdDeviation="4" result="effect1_foregroundBlur_201_10856"/>
</filter>
<filter id="filter6_f_201_10856" x="742.137" y="568.347" width="114.763" height="72.8428" filterUnits="userSpaceOnUse" color-interpolation-filters="sRGB">
<feFlood flood-opacity="0" result="BackgroundImageFix"/>
<feBlend mode="normal" in="SourceGraphic" in2="BackgroundImageFix" result="shape"/>
<feGaussianBlur stdDeviation="6.5" result="effect1_foregroundBlur_201_10856"/>
</filter>
<filter id="filter7_f_201_10856" x="785.814" y="671.225" width="46.5215" height="59.2749" filterUnits="userSpaceOnUse" color-interpolation-filters="sRGB">
<feFlood flood-opacity="0" result="BackgroundImageFix"/>
<feBlend mode="normal" in="SourceGraphic" in2="BackgroundImageFix" result="shape"/>
<feGaussianBlur stdDeviation="4" result="effect1_foregroundBlur_201_10856"/>
</filter>
<filter id="filter8_f_201_10856" x="669.17" y="769.212" width="75.2344" height="45.6743" filterUnits="userSpaceOnUse" color-interpolation-filters="sRGB">
<feFlood flood-opacity="0" result="BackgroundImageFix"/>
<feBlend mode="normal" in="SourceGraphic" in2="BackgroundImageFix" result="shape"/>
<feGaussianBlur stdDeviation="4" result="effect1_foregroundBlur_201_10856"/>
</filter>
<filter id="filter9_f_201_10856" x="561.246" y="708.436" width="49.7422" height="53.0972" filterUnits="userSpaceOnUse" color-interpolation-filters="sRGB">
<feFlood flood-opacity="0" result="BackgroundImageFix"/>
<feBlend mode="normal" in="SourceGraphic" in2="BackgroundImageFix" result="shape"/>
<feGaussianBlur stdDeviation="4" result="effect1_foregroundBlur_201_10856"/>
</filter>
<radialGradient id="paint0_radial_201_10856" cx="0" cy="0" r="1" gradientUnits="userSpaceOnUse" gradientTransform="translate(505 654) scale(382.5 459.646)">
<stop offset="0.0859985" stop-color="#B06D46"/>
<stop offset="0.250776" stop-color="#BC882B"/>
<stop offset="0.46875" stop-color="#845726"/>
<stop offset="0.729167" stop-color="#9D4A10"/>
<stop offset="0.859375" stop-color="#62371E"/>
<stop offset="0.996786" stop-color="#A85C3A"/>
</radialGradient>
</defs>
</svg>
