<svg width="24" height="24" viewBox="0 0 24 24" fill="none" xmlns="http://www.w3.org/2000/svg">
<path d="M11.1302 3.533C11.5134 2.85763 12.4866 2.85763 12.8698 3.533L14.9616 7.22001C15.1041 7.47108 15.3481 7.64834 15.6308 7.70623L19.7838 8.55636C20.5445 8.71208 20.8453 9.63762 20.3214 10.2107L17.4612 13.3396C17.2665 13.5526 17.1733 13.8394 17.2056 14.1263L17.6804 18.3387C17.7674 19.1103 16.9801 19.6823 16.2731 19.3612L12.4136 17.6079C12.1508 17.4885 11.8492 17.4885 11.5864 17.6079L7.72688 19.3612C7.0199 19.6823 6.23259 19.1103 6.31957 18.3387L6.79439 14.1263C6.82672 13.8395 6.73353 13.5526 6.53877 13.3396L3.67864 10.2107C3.15473 9.63762 3.45545 8.71208 4.21618 8.55636L8.36916 7.70623C8.65195 7.64834 8.89593 7.47108 9.03838 7.22001L11.1302 3.533Z" fill="url(#paint0_linear_150_158)"/>
<defs>
<linearGradient id="paint0_linear_150_158" x1="0.5" y1="5" x2="20.8291" y2="0.203437" gradientUnits="userSpaceOnUse">
<stop stop-color="#FFCC48"/>
<stop offset="1" stop-color="#FC7EFF"/>
</linearGradient>
</defs>
</svg>
